<svg width="30" height="45" viewBox="0 0 30 45" fill="none" xmlns="http://www.w3.org/2000/svg">
<path d="M12.4664 0.0448788C12.4664 0.0979353 12.6515 0.535652 12.863 1.03969C13.0878 1.54373 13.2597 2.0345 13.2597 2.14061C13.2597 2.23346 11.5938 5.76173 9.571 9.96646L5.88232 17.6199H7.24409C8.5001 17.6199 8.61909 17.5933 8.69841 17.3546C8.84384 16.8771 9.43879 16.2935 10.0998 15.9486C11.3426 15.3252 12.1491 15.2058 15.97 15.1395L19.5397 15.0732L20.0685 16.32L20.6106 17.5536L21.9591 17.5933C22.6995 17.6066 23.3077 17.5801 23.3077 17.5138C23.3077 17.4607 21.47 13.508 19.2224 8.73289L15.1371 0.0448788L13.8017 0.00508632C13.0614 -0.00817783 12.4664 0.00508632 12.4664 0.0448788ZM16.5121 8.90533L18.3762 12.5132L15.9171 12.606C13.1275 12.7121 12.1227 12.858 11.303 13.3223C10.9857 13.4947 10.7477 13.5743 10.7741 13.508C10.9328 13.0437 14.5289 5.29748 14.5818 5.28422C14.6215 5.28422 15.4808 6.91571 16.5121 8.90533Z" fill="white" fill-opacity="0.95"/>
<path d="M2.47234 24.0529C1.46754 24.5569 0.885812 25.618 1.05769 26.6659C1.12379 27.1036 1.07091 27.2495 0.74038 27.674C0.132211 28.43 0 28.7616 0 29.4912C0 30.1942 0.343748 31.0298 0.793264 31.441C1.17668 31.7991 1.95672 32.0777 2.55167 32.0777H3.09373L2.82931 31.693C2.48556 31.2155 2.47234 30.8043 2.80287 30.6186C3.18628 30.4197 3.37137 30.539 4.1382 31.494C6.06847 33.8816 8.85812 35.7386 11.6213 36.4681C12.9699 36.8262 15.191 36.9456 16.5263 36.7201C19.5936 36.2293 22.6213 34.4387 24.9349 31.7461C25.9001 30.6186 26.1513 30.4462 26.5215 30.6451C26.8256 30.8043 26.8123 31.2951 26.4686 31.7328L26.2042 32.0777H26.8123C29.0599 32.0777 30.1308 29.332 28.5443 27.5944C28.3195 27.3424 28.2667 27.1036 28.2667 26.4537C28.2534 23.9335 25.4506 22.806 23.7847 24.6497C23.322 25.167 23.203 25.5252 23.1501 26.6394C23.1104 27.223 23.0972 27.2363 22.3701 27.5944C21.5239 27.9923 21.0612 28.6025 21.0612 29.3055L21.0744 29.7564L21.59 29.1993C21.8809 28.8943 22.2246 28.5759 22.3568 28.5096C22.7006 28.3239 23.0443 28.5759 23.0443 29.0137C23.0443 29.3055 22.8063 29.6238 22.0263 30.4064C18.3773 34.0673 13.7896 34.7836 9.65138 32.3297C8.4086 31.6002 6.25357 29.4779 6.25357 28.9871C6.25357 28.7749 6.35934 28.5759 6.53121 28.4964C6.83529 28.3239 6.92784 28.377 7.73433 29.2259L8.22351 29.7564L8.23673 29.2922C8.23673 28.6688 7.72111 27.926 7.08649 27.6474C6.17424 27.2363 6.18746 27.2628 6.10814 26.268C6.05525 25.5915 5.94948 25.2068 5.7115 24.862C5.32809 24.2916 4.28363 23.7213 3.60935 23.7213C3.34493 23.7213 2.84253 23.8672 2.47234 24.0529ZM5.83049 29.9819C8.5937 33.2316 11.3966 34.7305 14.7151 34.7305C17.9013 34.7305 21.1537 32.9929 23.3749 30.0748C23.745 29.5973 24.1152 29.4248 24.3929 29.5707C24.8027 29.7962 24.6705 30.3003 23.9962 31.1094C19.7655 36.1896 13.4458 37.317 8.36894 33.8949C6.78241 32.8205 4.66704 30.5921 4.66704 30.0085C4.66704 29.7299 4.9579 29.4381 5.23554 29.4248C5.30165 29.4248 5.56607 29.6769 5.83049 29.9819Z" fill="white" fill-opacity="0.95"/>
<path d="M3.52989 38.4976L2.97461 39.0547L3.55634 39.6118L4.12484 40.1821L4.69335 39.5985L5.27508 39.0281L4.69335 38.4711C4.38926 38.166 4.11162 37.914 4.0984 37.9272C4.08518 37.9272 3.82076 38.1792 3.52989 38.4976Z" fill="white" fill-opacity="0.95"/>
<path d="M24.565 38.4975L24.0361 39.0413L24.6179 39.5984L25.1996 40.1555L25.7549 39.5852L26.3234 39.0281L25.7549 38.471C25.4376 38.1659 25.1599 37.9271 25.1335 37.9404C25.107 37.9404 24.8558 38.2057 24.565 38.4975Z" fill="white" fill-opacity="0.95"/>
<path d="M14.0539 42.689L13.459 43.2991L14.0539 43.8429L14.6621 44.4L15.2042 43.8429L15.7462 43.2858L15.2042 42.689L14.6489 42.0921L14.0539 42.689Z" fill="white" fill-opacity="0.95"/>
</svg>
