<svg width="250" height="250" viewBox="0 0 24 38" fill="none" xmlns="http://www.w3.org/2000/svg">
<g id="Property 1=MyLogoOne">
<path id="Vector" d="M8.7783 11.6122C8.81284 11.5121 9.02252 11.0418 9.31584 10.3972C9.61101 9.74856 9.99281 8.91933 10.3719 8.10168C10.7509 7.28404 11.1273 6.4779 11.4117 5.87544C11.5538 5.57424 11.673 5.32382 11.7581 5.14831C11.8006 5.06059 11.8347 4.99134 11.8589 4.94374C11.871 4.92002 11.8808 4.90122 11.8881 4.88808C11.8917 4.88162 11.8951 4.87577 11.898 4.87116C11.8994 4.86899 11.9014 4.86601 11.9038 4.86309C11.9049 4.86169 11.907 4.85923 11.9099 4.85663L11.91 4.85652C11.9116 4.85499 11.9195 4.84779 11.932 4.84465L11.9317 4.84314H11.9442C11.9628 4.84314 11.9752 4.85331 11.9769 4.85466C11.9811 4.85793 11.9844 4.86138 11.9864 4.86366C11.9907 4.86845 11.995 4.8742 11.999 4.87983C12.0071 4.89144 12.0174 4.90776 12.0296 4.92789C12.0541 4.96842 12.0879 5.02763 12.1299 5.10313C12.2139 5.25431 12.3315 5.47262 12.4743 5.74159C12.7601 6.27963 13.1473 7.02133 13.5697 7.83623L13.5697 7.83629L15.0967 10.7915L15.1328 10.8615L15.0542 10.8644L13.0399 10.9405C10.7522 11.0275 9.94208 11.1475 9.28311 11.5207L9.28312 11.5207L9.28235 11.5212C9.15106 11.5925 9.0347 11.6455 8.95264 11.6739C8.91288 11.6876 8.87636 11.6974 8.84905 11.6983C8.83785 11.6987 8.81409 11.6985 8.795 11.6826C8.7834 11.6729 8.77595 11.6594 8.7741 11.6442C8.77253 11.6313 8.7753 11.6202 8.7783 11.6122ZM8.7783 11.6122C8.77819 11.6125 8.77808 11.6129 8.77798 11.6132L8.82529 11.6293L8.77885 11.6108C8.77867 11.6113 8.77848 11.6117 8.7783 11.6122ZM7.88486 8.75011L7.88484 8.75014L4.89796 14.9474H5.9338C6.45034 14.9474 6.72629 14.9418 6.88175 14.913C6.95856 14.8987 6.99893 14.8799 7.02358 14.8587C7.04749 14.8381 7.06218 14.8107 7.07741 14.7649C7.14049 14.5584 7.29834 14.3344 7.50534 14.1281C7.71332 13.9209 7.97462 13.7277 8.24986 13.5841L8.24985 13.5841L8.25057 13.5838C9.2801 13.0673 9.95182 12.97 13.0804 12.9157L16.0044 12.8614L16.0381 12.8608L16.0513 12.8919L16.4842 13.9126L16.4845 13.9132L16.9155 14.8941L17.988 14.9257C17.9881 14.9257 17.9882 14.9257 17.9883 14.9257C18.2908 14.9311 18.5655 14.9284 18.7641 14.9176C18.8637 14.9122 18.9427 14.9049 18.996 14.8959C19.0096 14.8936 19.0209 14.8912 19.03 14.889C19.0294 14.8878 19.0289 14.8864 19.0283 14.8851C19.017 14.8585 19.0001 14.8199 18.9778 14.7698C18.9331 14.6697 18.8672 14.5246 18.7823 14.3392C18.6124 13.9686 18.3668 13.4377 18.0636 12.7858C17.4572 11.4821 16.6206 9.69491 15.7001 7.73929L15.7001 7.73928L12.3669 0.650599L11.3044 0.618934C11.3043 0.618932 11.3042 0.618931 11.3041 0.618929C11.0014 0.613508 10.7289 0.613521 10.5323 0.618922C10.4338 0.62163 10.3554 0.625668 10.302 0.630924C10.2903 0.632071 10.2802 0.633247 10.2716 0.634423C10.2752 0.64509 10.2796 0.657606 10.2848 0.671929C10.3014 0.717273 10.3255 0.778421 10.3553 0.851628C10.408 0.981571 10.4779 1.14791 10.5536 1.32821C10.563 1.35078 10.5726 1.37358 10.5823 1.39654C10.6747 1.60387 10.7563 1.80857 10.8149 1.9727C10.8442 2.05479 10.868 2.12719 10.8845 2.18495C10.9003 2.24037 10.9112 2.28837 10.9112 2.31818C10.9112 2.32625 10.9094 2.33346 10.9086 2.33635C10.9084 2.33736 10.9081 2.33839 10.9078 2.33943C10.9069 2.34269 10.9058 2.34608 10.9047 2.34947C10.9016 2.35849 10.8973 2.3699 10.892 2.38332C10.8813 2.41027 10.8656 2.44749 10.8452 2.49417C10.8045 2.58764 10.7445 2.72056 10.6676 2.88837C10.5137 3.22407 10.2912 3.70027 10.0171 4.2816C9.46878 5.44428 8.71336 7.02796 7.88486 8.75011Z" stroke="url(#paint0_linear_701_111)" stroke-width="0.1"/>
<path id="Vector_2" d="M21.7475 25.8859C21.894 25.9627 21.9587 26.1175 21.9514 26.292C21.9441 26.4663 21.8659 26.6661 21.7202 26.8517C21.7202 26.8517 21.7201 26.8518 21.7201 26.8518L21.5655 27.0534H21.9623C22.86 27.0534 23.5224 26.506 23.8028 25.7829C24.0832 25.0596 23.9804 24.1618 23.3441 23.4648L23.3437 23.4644C23.2467 23.3556 23.1856 23.2479 23.1496 23.0978C23.1143 22.9504 23.1036 22.7633 23.1036 22.497C23.0983 21.4849 22.5337 20.7563 21.8069 20.4639C21.0805 20.1716 20.1878 20.3131 19.5196 21.0525C19.333 21.2611 19.2185 21.4344 19.1442 21.6659C19.0692 21.8996 19.0341 22.1953 19.0125 22.6512L19.0124 22.6523C18.9965 22.8861 18.9863 23.0269 18.8929 23.1409C18.8467 23.1973 18.7825 23.2447 18.6953 23.2956C18.6082 23.3464 18.4941 23.4029 18.3457 23.476L18.3449 23.4764C17.663 23.797 17.3018 24.2822 17.3015 24.832C17.3015 24.8322 17.3015 24.8325 17.3015 24.8327L17.3087 25.0784L17.648 24.7118L17.6485 24.7113C17.7683 24.5856 17.8991 24.4571 18.0138 24.3529C18.0712 24.3009 18.1249 24.2546 18.1714 24.2177C18.2167 24.1817 18.2578 24.1526 18.2896 24.1365C18.4462 24.0522 18.6076 24.066 18.7295 24.1554C18.8503 24.244 18.9259 24.4016 18.9259 24.5937C18.9259 24.7286 18.8702 24.864 18.7389 25.0429C18.6078 25.2215 18.3969 25.4493 18.0774 25.7698C16.5767 27.2754 14.8806 28.1777 13.1317 28.4498C11.3826 28.722 9.58413 28.3633 7.88016 27.3529C7.36597 27.0511 6.66681 26.4638 6.09716 25.9032C5.81202 25.6226 5.55802 25.3474 5.37491 25.1164C5.28343 25.0009 5.20886 24.8956 5.1569 24.8055C5.1063 24.7177 5.07238 24.6365 5.07238 24.5719C5.07238 24.3844 5.16541 24.2013 5.32687 24.1255C5.38913 24.0903 5.44804 24.0621 5.51129 24.0562C5.57747 24.0499 5.64161 24.0684 5.71407 24.1122C5.78536 24.1553 5.86782 24.2247 5.97225 24.3248C6.07709 24.4254 6.20642 24.5593 6.37153 24.7331L6.37205 24.7336L6.68949 25.0779L6.69681 24.8211C6.69662 24.5789 6.59596 24.3092 6.42965 24.0709C6.26337 23.8326 6.0346 23.6301 5.78454 23.5204L5.78409 23.5202C5.76819 23.513 5.75261 23.506 5.73734 23.4991C5.57431 23.4257 5.44729 23.3685 5.34914 23.3143C5.24119 23.2547 5.16305 23.196 5.10739 23.1179C5.05168 23.0398 5.02186 22.9471 5.00149 22.8259C4.98231 22.7117 4.97082 22.5674 4.95592 22.3802C4.9551 22.3698 4.95426 22.3593 4.95341 22.3486L4.9534 22.3485C4.91036 21.798 4.82482 21.4932 4.63721 21.2214L4.63687 21.2209C4.48604 20.9965 4.20128 20.7677 3.88287 20.5945C3.56433 20.4213 3.2209 20.3086 2.95647 20.3086C2.85523 20.3086 2.70356 20.3369 2.53727 20.3854C2.37189 20.4335 2.19608 20.5004 2.04754 20.5749C1.24209 20.979 0.778805 21.8279 0.915708 22.6625L0.915803 22.6631C0.943203 22.8446 0.947356 22.9734 0.905852 23.1028C0.864933 23.2304 0.7811 23.3534 0.645904 23.527L0.645909 23.527L0.645414 23.5277C0.396893 23.8366 0.249197 24.0546 0.162744 24.2675C0.0768136 24.4791 0.05 24.6892 0.05 24.9848C0.05 25.2651 0.118683 25.5738 0.233102 25.8541C0.347646 26.1347 0.506436 26.3831 0.683522 26.545L0.683903 26.5454C0.834284 26.6859 1.06577 26.8133 1.32192 26.9057C1.57769 26.9979 1.85346 27.0534 2.0901 27.0534H2.43907L2.27662 26.8171C2.13301 26.6175 2.05403 26.426 2.0496 26.26C2.04506 26.0903 2.11908 25.9503 2.27137 25.8647L2.27136 25.8647L2.27283 25.8639C2.35396 25.8218 2.43038 25.7934 2.50981 25.7916C2.59056 25.7898 2.66838 25.8156 2.75236 25.8705C2.91605 25.9776 3.11611 26.2049 3.4286 26.594C5.00358 28.5421 7.2797 30.0567 9.53194 30.6514L9.53201 30.6514C10.6301 30.943 12.4423 31.0403 13.5286 30.8568L13.529 30.8568C16.0281 30.4569 18.4979 28.9972 20.3865 26.7993C20.7807 26.3389 21.0341 26.0672 21.2286 25.9324C21.327 25.8642 21.4145 25.828 21.5011 25.8224C21.5879 25.8169 21.6671 25.8427 21.7475 25.8859ZM21.7475 25.8859C21.7474 25.8858 21.7474 25.8858 21.7473 25.8857L21.7241 25.93L21.7477 25.886C21.7477 25.886 21.7476 25.8859 21.7475 25.8859ZM4.81362 25.354L4.81392 25.3544C7.07072 28.0086 9.35371 29.2264 12.0533 29.2264C14.6453 29.2264 17.2954 27.8124 19.1069 25.4326L19.1071 25.4322C19.2614 25.2332 19.4186 25.0938 19.5701 25.02C19.7227 24.9456 19.8726 24.9368 20.0038 25.0057L20.0046 25.0062C20.0968 25.0569 20.1624 25.1257 20.1958 25.2139C20.229 25.3015 20.2283 25.4022 20.1995 25.5134C20.1424 25.7339 19.9711 26.0099 19.694 26.3423C16.2142 30.5208 11.0095 31.4526 6.82716 28.6334L6.82707 28.6333C6.17348 28.1907 5.41269 27.5118 4.81541 26.8839C4.5167 26.57 4.25789 26.2677 4.07339 26.0132C3.98119 25.886 3.90684 25.7698 3.85533 25.6693C3.80465 25.5704 3.77283 25.4807 3.77283 25.4085C3.77283 25.2777 3.84045 25.149 3.9347 25.053C4.02899 24.9569 4.15663 24.8867 4.28611 24.8805L4.28611 24.8805H4.2885C4.30826 24.8805 4.32679 24.8889 4.33959 24.8957C4.35418 24.9035 4.37016 24.9141 4.38685 24.9265C4.42037 24.9514 4.46088 24.9865 4.50552 25.0285C4.59504 25.1128 4.70452 25.2282 4.81362 25.354Z" stroke="url(#paint1_linear_701_111)" stroke-width="0.1"/>
<path id="VectorOne" d="M2.55132 32.5688L2.55136 32.5688L2.54982 32.5704L2.13099 32.9906L2.57065 33.4116L2.57066 33.4116L2.57148 33.4124L3.00133 33.8437L3.4316 33.402L3.43159 33.402L3.43241 33.4012L3.87206 32.9701L3.43283 32.5495L3.43282 32.5495L3.432 32.5487C3.3079 32.4241 3.18936 32.3106 3.10071 32.2298C3.05629 32.1893 3.01988 32.1574 2.99423 32.1366C2.99052 32.1336 2.98713 32.1308 2.98403 32.1284C2.97988 32.1321 2.97522 32.1363 2.97005 32.1411C2.9451 32.1639 2.91004 32.1974 2.86766 32.2393C2.78295 32.3229 2.66984 32.4391 2.55132 32.5688Z" stroke="url(#paint2_linear_701_111)" stroke-width="0.1"/>
</g>
<defs>
<linearGradient id="paint0_linear_701_111" x1="9.59487" y1="6.77889" x2="20.7026" y2="6.77889" gradientUnits="userSpaceOnUse">
<stop stop-color="#19C78E"/>
<stop offset="1" stop-color="#3C9CE6"/>
</linearGradient>
<linearGradient id="paint1_linear_701_111" x1="8.0315" y1="24.8834" x2="26.7087" y2="24.8834" gradientUnits="userSpaceOnUse">
<stop stop-color="#19C78E"/>
<stop offset="1" stop-color="#3C9CE6"/>
</linearGradient>
<linearGradient id="paint2_linear_701_111" x1="2.69016" y1="32.8629" x2="4.15658" y2="32.8629" gradientUnits="userSpaceOnUse">
<stop stop-color="#19C78E"/>
<stop offset="1" stop-color="#3C9CE6"/>
</linearGradient>
</defs>
</svg>
