<svg width="30" height="45" viewBox="0 0 30 45" fill="none" xmlns="http://www.w3.org/2000/svg">
<path d="M12.4666 0.044878C12.4666 0.0979347 12.6517 0.535652 12.8632 1.03969C13.088 1.54373 13.2599 2.0345 13.2599 2.14061C13.2599 2.23346 11.594 5.76173 9.57119 9.96646L5.88251 17.6199H7.24428C8.50028 17.6199 8.61927 17.5933 8.6986 17.3546C8.84403 16.8771 9.43897 16.2935 10.1 15.9486C11.3428 15.3252 12.1493 15.2058 15.9702 15.1395L19.5399 15.0732L20.0687 16.32L20.6108 17.5536L21.9593 17.5933C22.6997 17.6066 23.3079 17.5801 23.3079 17.5138C23.3079 17.4607 21.4701 13.508 19.2226 8.73289L15.1373 0.044878L13.8019 0.0050869C13.0615 -0.00817871 12.4666 0.0050869 12.4666 0.044878ZM16.5122 8.90533L18.3764 12.5132L15.9173 12.606C13.1277 12.7121 12.1229 12.858 11.3031 13.3223C10.9858 13.4947 10.7479 13.5743 10.7743 13.508C10.933 13.0437 14.5291 5.29748 14.582 5.28422C14.6216 5.28422 15.481 6.91571 16.5122 8.90533Z" fill="url(#paint0_linear_343_334)"/>
<path d="M2.47234 24.0529C1.46754 24.5569 0.885812 25.618 1.05769 26.6659C1.12379 27.1036 1.07091 27.2495 0.74038 27.674C0.132211 28.43 0 28.7616 0 29.4912C0 30.1942 0.343748 31.0298 0.793264 31.441C1.17668 31.7991 1.95672 32.0777 2.55167 32.0777H3.09373L2.82931 31.693C2.48556 31.2155 2.47234 30.8043 2.80287 30.6186C3.18628 30.4197 3.37137 30.539 4.1382 31.494C6.06847 33.8816 8.85812 35.7386 11.6213 36.4681C12.9699 36.8262 15.191 36.9456 16.5263 36.7201C19.5936 36.2293 22.6213 34.4387 24.9349 31.7461C25.9001 30.6186 26.1513 30.4462 26.5215 30.6451C26.8256 30.8043 26.8123 31.2951 26.4686 31.7328L26.2042 32.0777H26.8123C29.0599 32.0777 30.1308 29.332 28.5443 27.5944C28.3195 27.3424 28.2667 27.1036 28.2667 26.4537C28.2534 23.9335 25.4506 22.806 23.7847 24.6497C23.322 25.1671 23.203 25.5252 23.1501 26.6394C23.1104 27.223 23.0972 27.2363 22.3701 27.5944C21.5239 27.9923 21.0612 28.6025 21.0612 29.3055L21.0744 29.7564L21.59 29.1993C21.8809 28.8943 22.2246 28.5759 22.3568 28.5096C22.7006 28.3239 23.0443 28.5759 23.0443 29.0137C23.0443 29.3055 22.8063 29.6238 22.0263 30.4064C18.3773 34.0673 13.7896 34.7836 9.65138 32.3297C8.4086 31.6002 6.25357 29.4779 6.25357 28.9871C6.25357 28.7749 6.35934 28.5759 6.53121 28.4964C6.83529 28.3239 6.92784 28.377 7.73433 29.2259L8.22351 29.7564L8.23673 29.2922C8.23673 28.6688 7.72111 27.926 7.08649 27.6474C6.17424 27.2363 6.18746 27.2628 6.10814 26.268C6.05525 25.5915 5.94948 25.2068 5.7115 24.862C5.32809 24.2916 4.28363 23.7213 3.60935 23.7213C3.34493 23.7213 2.84253 23.8672 2.47234 24.0529ZM5.83049 29.9819C8.5937 33.2316 11.3966 34.7305 14.7151 34.7305C17.9013 34.7305 21.1537 32.9929 23.3749 30.0748C23.745 29.5973 24.1152 29.4248 24.3929 29.5707C24.8027 29.7962 24.6705 30.3003 23.9962 31.1094C19.7655 36.1896 13.4458 37.317 8.36894 33.8949C6.78241 32.8205 4.66704 30.5921 4.66704 30.0085C4.66704 29.7299 4.9579 29.4381 5.23554 29.4248C5.30165 29.4248 5.56607 29.6769 5.83049 29.9819Z" fill="url(#paint1_linear_343_334)"/>
<path d="M3.53002 38.4976L2.97473 39.0547L3.55646 39.6118L4.12496 40.1821L4.69347 39.5985L5.2752 39.0281L4.69347 38.4711C4.38939 38.166 4.11174 37.914 4.09852 37.9272C4.0853 37.9272 3.82088 38.1792 3.53002 38.4976Z" fill="url(#paint2_linear_343_334)"/>
<path d="M24.5648 38.4975L24.0359 39.0413L24.6177 39.5984L25.1994 40.1555L25.7547 39.5852L26.3232 39.0281L25.7547 38.471C25.4374 38.1659 25.1597 37.9271 25.1333 37.9404C25.1069 37.9404 24.8557 38.2057 24.5648 38.4975Z" fill="url(#paint3_linear_343_334)"/>
<path d="M14.0539 42.689L13.4589 43.2991L14.0539 43.8429L14.662 44.4L15.2041 43.8429L15.7462 43.2858L15.2041 42.689L14.6488 42.0921L14.0539 42.689Z" fill="url(#paint4_linear_343_334)"/>
<defs>
<linearGradient id="paint0_linear_343_334" x1="25.7441" y1="7.15814" x2="3.00137" y2="7.61879" gradientUnits="userSpaceOnUse">
<stop offset="0.630208" stop-color="#3194EF"/>
<stop offset="1" stop-color="white" stop-opacity="0.95"/>
</linearGradient>
<linearGradient id="paint1_linear_343_334" x1="33.3964" y1="29.0486" x2="-4.78025" y2="30.7956" gradientUnits="userSpaceOnUse">
<stop offset="0.630208" stop-color="#3194EF"/>
<stop offset="1" stop-color="white" stop-opacity="0.95"/>
</linearGradient>
<linearGradient id="paint2_linear_343_334" x1="5.59683" y1="38.843" x2="2.59445" y2="38.9057" gradientUnits="userSpaceOnUse">
<stop offset="0.630208" stop-color="#3194EF"/>
<stop offset="1" stop-color="white" stop-opacity="0.95"/>
</linearGradient>
<linearGradient id="paint3_linear_343_334" x1="26.643" y1="38.84" x2="23.6579" y2="38.9031" gradientUnits="userSpaceOnUse">
<stop offset="0.630208" stop-color="#3194EF"/>
<stop offset="1" stop-color="white" stop-opacity="0.95"/>
</linearGradient>
<linearGradient id="paint4_linear_343_334" x1="16.0659" y1="43.0297" x2="13.0808" y2="43.0903" gradientUnits="userSpaceOnUse">
<stop offset="0.630208" stop-color="#3194EF"/>
<stop offset="1" stop-color="white" stop-opacity="0.95"/>
</linearGradient>
</defs>
</svg>
